<svg id="Layer_1" height="512" viewBox="0 0 512 512" width="512" xmlns="http://www.w3.org/2000/svg" data-name="Layer 1"><path d="m67.736 308.521a6 6 0 0 0 -6 6v17.231a6 6 0 1 0 12 0v-17.231a6 6 0 0 0 -6-6z"/><path d="m67.736 367.324a6 6 0 0 0 -6 6v18.565a6 6 0 1 0 12 0v-18.565a6 6 0 0 0 -6-6z"/><path d="m230.47 78.366a5.982 5.982 0 0 0 4.243-1.757l36.07-36.07a6 6 0 0 0 -8.485-8.486l-36.07 36.071a6 6 0 0 0 4.242 10.242z"/><path d="m279.218 170.965-46.158-22.081a6 6 0 0 0 -5.179 10.825l46.159 22.081a6 6 0 1 0 5.178-10.825z"/><path d="m232.672 109.834a6 6 0 0 0 6 6h37.957a6 6 0 0 0 0-12h-37.957a6 6 0 0 0 -6 6z"/><path d="m492.044 290.4-32.5-9 13.9-17.285a6 6 0 0 0 -4.677-9.76h-142.4a9.316 9.316 0 0 0 -9.316 9.316v11.329h-81.685a8.589 8.589 0 0 0 -8.579 8.579v12.052h-52.473v-77.819a18.9 18.9 0 0 0 -18.894-18.9h-13.342v-26.678h46.868a11.17 11.17 0 0 0 11.154-11.158v-92.841a11.17 11.17 0 0 0 -11.157-11.158h-144.115a31.826 31.826 0 0 0 -31.79 31.789v51.578a31.826 31.826 0 0 0 31.79 31.79h20.777v26.683h-13.342a18.9 18.9 0 0 0 -18.895 18.9v13.877a34.418 34.418 0 0 0 -28.368 33.828v149.578a34.418 34.418 0 0 0 28.368 33.833v13.877a18.9 18.9 0 0 0 18.895 18.89h103.157a18.894 18.894 0 0 0 18.894-18.894v-52.022h52.473v12.052a8.589 8.589 0 0 0 8.579 8.579h81.683v11.316a9.316 9.316 0 0 0 9.316 9.316l142.4-.181a6 6 0 0 0 4.677-9.759l-13.9-17.286 32.5-9a18.946 18.946 0 0 0 14.958-18.475v-88.462a18.945 18.945 0 0 0 -14.956-18.484zm-317.73-221.323h13.786v91.157h-13.786zm-129.486 91.157a19.813 19.813 0 0 1 -19.79-19.79v-51.578a19.813 19.813 0 0 1 19.79-19.789h85.25v12.578a6 6 0 0 0 12 0v-12.578h20.236v91.157h-20.236v-58.821a6 6 0 1 0 -12 0v58.821zm85.25 12v26.683h-52.473v-26.683zm32.236 290.576a6.9 6.9 0 0 1 -6.894 6.894h-103.157a6.9 6.9 0 0 1 -6.895-6.894v-160.388a6 6 0 0 0 -12 0v134.222a22.4 22.4 0 0 1 -16.368-21.544v-149.578a22.4 22.4 0 0 1 16.368-21.544v18.444a6 6 0 0 0 12 0v-44.61a6.9 6.9 0 0 1 6.895-6.9h77.815v84.268a6 6 0 0 0 12 0v-84.263h13.342a6.9 6.9 0 0 1 6.894 6.9zm64.473-141.025h-32.737a6 6 0 0 0 0 12h32.737v65h-52.473v-91.158h52.473zm157.313 118.262h-55.051v-25.594a6 6 0 0 0 -12 0v4.962h-78.262v-132.415h78.262v13.789h-53a6 6 0 0 0 0 12h53v61.668a6 6 0 0 0 12 0v-108.093h55.051zm49 0h-37v-14.526h37zm0-26.526h-37v-14.521h37zm0-26.526h-37v-14.526h37zm0-26.526h-37v-14.527h37zm0-26.527h-37v-14.525h37zm0-26.525h-37v-14.526h37zm0-26.526h-37v-14.527h37zm61.9 116.455a6.913 6.913 0 0 1 -5.542 6.761c-.143.028-.284.062-.424.1l-33.417 9.249a11.158 11.158 0 0 0 -6.787 17.159c.09.133.186.262.286.387l7.125 8.863h-11.141v-173.5h11.14l-7.125 8.864c-.1.125-.2.253-.286.386a11.158 11.158 0 0 0 6.787 17.159l33.417 9.25c.14.039.281.072.424.1a6.912 6.912 0 0 1 5.542 6.76z"/></svg>